<svg xmlns="http://www.w3.org/2000/svg" viewBox="0 0 1380 860" width="1380" height="860" font-family="'Segoe UI', system-ui, -apple-system, sans-serif">
  <defs>
    <!-- Table shadows -->
    <filter id="shadow" x="-8%" y="-8%" width="116%" height="116%">
      <feDropShadow dx="0" dy="3" stdDeviation="7" flood-color="#000" flood-opacity="0.55"/>
    </filter>
    <filter id="shadowSm" x="-6%" y="-6%" width="112%" height="112%">
      <feDropShadow dx="0" dy="2" stdDeviation="4" flood-color="#000" flood-opacity="0.4"/>
    </filter>

    <!-- Header gradients -->
    <linearGradient id="hdrFact" x1="0%" y1="0%" x2="100%" y2="0%">
      <stop offset="0%" style="stop-color:#1a3a6b"/>
      <stop offset="100%" style="stop-color:#1e4db0"/>
    </linearGradient>
    <linearGradient id="hdrDim" x1="0%" y1="0%" x2="100%" y2="0%">
      <stop offset="0%" style="stop-color:#451a80"/>
      <stop offset="100%" style="stop-color:#6d28d9"/>
    </linearGradient>
    <linearGradient id="hdrBank" x1="0%" y1="0%" x2="100%" y2="0%">
      <stop offset="0%" style="stop-color:#0a3d5c"/>
      <stop offset="100%" style="stop-color:#0369a1"/>
    </linearGradient>
    <linearGradient id="hdrOut" x1="0%" y1="0%" x2="100%" y2="0%">
      <stop offset="0%" style="stop-color:#03331a"/>
      <stop offset="100%" style="stop-color:#059669"/>
    </linearGradient>
    <!-- dim_Date gradient (amber/orange — distinct from fact blue & dim purple) -->
    <linearGradient id="hdrDate" x1="0%" y1="0%" x2="100%" y2="0%">
      <stop offset="0%" style="stop-color:#78350f"/>
      <stop offset="100%" style="stop-color:#d97706"/>
    </linearGradient>
    <!-- Dynamic_Holidays gradient (teal) -->
    <linearGradient id="hdrHol" x1="0%" y1="0%" x2="100%" y2="0%">
      <stop offset="0%" style="stop-color:#134e4a"/>
      <stop offset="100%" style="stop-color:#0d9488"/>
    </linearGradient>

    <!-- Pipeline stage gradients -->
    <linearGradient id="pipeGen" x1="0%" y1="0%" x2="0%" y2="100%">
      <stop offset="0%" style="stop-color:#2d1060"/>
      <stop offset="100%" style="stop-color:#1a0840"/>
    </linearGradient>
    <linearGradient id="pipeRaw" x1="0%" y1="0%" x2="0%" y2="100%">
      <stop offset="0%" style="stop-color:#0e2a4a"/>
      <stop offset="100%" style="stop-color:#071828"/>
    </linearGradient>
    <linearGradient id="pipeEtl" x1="0%" y1="0%" x2="0%" y2="100%">
      <stop offset="0%" style="stop-color:#063344"/>
      <stop offset="100%" style="stop-color:#031c27"/>
    </linearGradient>
    <linearGradient id="pipeOut" x1="0%" y1="0%" x2="0%" y2="100%">
      <stop offset="0%" style="stop-color:#03301a"/>
      <stop offset="100%" style="stop-color:#011a0e"/>
    </linearGradient>
    <!-- CDC / Daily Updates stage gradient (rose-red) -->
    <linearGradient id="pipeCdc" x1="0%" y1="0%" x2="0%" y2="100%">
      <stop offset="0%" style="stop-color:#3b0a0a"/>
      <stop offset="100%" style="stop-color:#1a0505"/>
    </linearGradient>

    <!-- Arrowheads -->
    <marker id="arrN" markerWidth="9" markerHeight="7" refX="8" refY="3.5" orient="auto">
      <polygon points="0 0,9 3.5,0 7" fill="#4b5563"/>
    </marker>
    <marker id="arrDash" markerWidth="9" markerHeight="7" refX="8" refY="3.5" orient="auto">
      <polygon points="0 0,9 3.5,0 7" fill="#374151"/>
    </marker>
    <marker id="arrPipe" markerWidth="9" markerHeight="7" refX="8" refY="3.5" orient="auto">
      <polygon points="0 0,9 3.5,0 7" fill="#374151"/>
    </marker>
    <!-- API / teal arrowhead -->
    <marker id="arrApi" markerWidth="9" markerHeight="7" refX="8" refY="3.5" orient="auto">
      <polygon points="0 0,9 3.5,0 7" fill="#0d9488"/>
    </marker>
    <!-- Date dim arrowhead (amber) -->
    <marker id="arrDate" markerWidth="9" markerHeight="7" refX="8" refY="3.5" orient="auto">
      <polygon points="0 0,9 3.5,0 7" fill="#d97706"/>
    </marker>
    <!-- CDC arrowhead (rose) -->
    <marker id="arrCdc" markerWidth="9" markerHeight="7" refX="8" refY="3.5" orient="auto">
      <polygon points="0 0,9 3.5,0 7" fill="#f43f5e"/>
    </marker>
  </defs>

  <!-- ═══ BACKGROUND ═══ -->
  <rect width="1380" height="860" fill="#111318" rx="0"/>
  <!-- Very subtle dot grid -->
  <pattern id="grid" width="28" height="28" patternUnits="userSpaceOnUse">
    <circle cx="14" cy="14" r="0.8" fill="#ffffff" opacity="0.04"/>
  </pattern>
  <rect width="1380" height="860" fill="url(#grid)"/>

  <!-- ═══════════════════════════════════════════════════════════ -->
  <!--  PIPELINE STRIP (top)                                       -->
  <!-- ═══════════════════════════════════════════════════════════ -->

  <!-- Stage 1: Generate -->
  <rect x="20" y="12" width="240" height="60" rx="8" fill="url(#pipeGen)" stroke="#5b21b6" stroke-width="1.2" filter="url(#shadowSm)"/>
  <text x="86" y="31" font-size="8.5" font-weight="600" fill="#a78bfa" letter-spacing="1.2">STAGE 1</text>
  <text x="86" y="47" font-size="12" font-weight="700" fill="#e2e8f0">data_generator</text>
  <text x="86" y="62" font-size="9.5" fill="#7c6b9e">.ipynb · NumPy · Faker</text>
  <!-- Notebook icon -->
  <rect x="32" y="26" width="38" height="30" rx="3" fill="#5b21b6" opacity="0.6"/>
  <line x1="38" y1="33" x2="64" y2="33" stroke="#c4b5fd" stroke-width="1.5"/>
  <line x1="38" y1="39" x2="64" y2="39" stroke="#c4b5fd" stroke-width="1.5"/>
  <line x1="38" y1="45" x2="58" y2="45" stroke="#c4b5fd" stroke-width="1.5"/>

  <!-- Arrow 1→2 -->
  <line x1="260" y1="42" x2="308" y2="42" stroke="#E25A1C" stroke-width="1.5" marker-end="url(#arrPipe)"/>
  <text x="284" y="38" text-anchor="middle" font-size="8" fill="#E25A1C" font-weight="600">3 Parquet</text>

  <!-- Stage 2: Raw Data (Parquet) -->
  <rect x="310" y="12" width="220" height="60" rx="8" fill="url(#pipeRaw)" stroke="#E25A1C" stroke-width="1.2" filter="url(#shadowSm)"/>
  <text x="372" y="31" font-size="8.5" font-weight="600" fill="#60a5fa" letter-spacing="1.2">STAGE 2</text>
  <text x="372" y="47" font-size="12" font-weight="700" fill="#e2e8f0">data/raw/</text>
  <text x="372" y="62" font-size="9.5" fill="#E25A1C">.parquet · pyarrow · ~77% smaller</text>
  <!-- Parquet icon (simplified) -->
  <rect x="320" y="24" width="38" height="30" rx="3" fill="#E25A1C" opacity="0.25"/>
  <text x="339" y="43" text-anchor="middle" font-size="10" font-weight="800" fill="#fb923c">.pq</text>

  <!-- Arrow 2→3 -->
  <line x1="530" y1="42" x2="578" y2="42" stroke="#374151" stroke-width="1.5" marker-end="url(#arrPipe)"/>
  <text x="554" y="38" text-anchor="middle" font-size="8" fill="#4b5563">Power Query</text>

  <!-- Stage 3: ETL -->
  <rect x="580" y="12" width="220" height="60" rx="8" fill="url(#pipeEtl)" stroke="#0369a1" stroke-width="1.2" filter="url(#shadowSm)"/>
  <text x="642" y="31" font-size="8.5" font-weight="600" fill="#38bdf8" letter-spacing="1.2">STAGE 3</text>
  <text x="642" y="47" font-size="12" font-weight="700" fill="#e2e8f0">ETL Engine</text>
  <text x="642" y="62" font-size="9.5" fill="#2a6a80">M-Language · Clean · Join · Enrich</text>
  <!-- Gear icon -->
  <circle cx="616" cy="42" r="14" fill="#0369a1" opacity="0.5"/>
  <circle cx="616" cy="42" r="7" fill="none" stroke="#7dd3fc" stroke-width="2.5"/>
  <circle cx="616" cy="42" r="2.5" fill="#7dd3fc"/>
  <line x1="616" y1="28" x2="616" y2="32" stroke="#7dd3fc" stroke-width="2.5"/>
  <line x1="616" y1="52" x2="616" y2="56" stroke="#7dd3fc" stroke-width="2.5"/>
  <line x1="602" y1="42" x2="606" y2="42" stroke="#7dd3fc" stroke-width="2.5"/>
  <line x1="626" y1="42" x2="630" y2="42" stroke="#7dd3fc" stroke-width="2.5"/>

  <!-- Arrow 3→4 -->
  <line x1="800" y1="42" x2="848" y2="42" stroke="#374151" stroke-width="1.5" marker-end="url(#arrPipe)"/>
  <text x="824" y="38" text-anchor="middle" font-size="8" fill="#4b5563">Analytics</text>

  <!-- Stage 4: Output -->
  <rect x="850" y="12" width="190" height="60" rx="8" fill="url(#pipeOut)" stroke="#059669" stroke-width="1.2" filter="url(#shadowSm)"/>
  <text x="905" y="31" font-size="8.5" font-weight="600" fill="#34d399" letter-spacing="1.2">STAGE 4</text>
  <text x="905" y="47" font-size="12" font-weight="700" fill="#e2e8f0">Output Layer</text>
  <text x="905" y="62" font-size="9.5" fill="#1a5c3a">Dashboards · User_Comments.xlsx</text>
  <!-- Chart icon -->
  <rect x="860" y="30" width="32" height="26" rx="2" fill="#059669" opacity="0.3"/>
  <rect x="862" y="44" width="5" height="10" rx="1" fill="#34d399"/>
  <rect x="869" y="38" width="5" height="16" rx="1" fill="#34d399"/>
  <rect x="876" y="34" width="5" height="20" rx="1" fill="#34d399"/>
  <rect x="883" y="40" width="5" height="14" rx="1" fill="#34d399"/>

  <!-- Arrow 4→5 -->
  <line x1="1040" y1="42" x2="1058" y2="42" stroke="#f43f5e" stroke-width="1.5" marker-end="url(#arrCdc)"/>
  <text x="1049" y="38" text-anchor="middle" font-size="7.5" fill="#f43f5e" font-weight="600">CDC</text>

  <!-- Stage 5: Daily Updates -->
  <rect x="1060" y="12" width="200" height="60" rx="8" fill="url(#pipeCdc)" stroke="#f43f5e" stroke-width="1.2" filter="url(#shadowSm)"/>
  <text x="1112" y="31" font-size="8.5" font-weight="600" fill="#fda4af" letter-spacing="1.2">STAGE 5</text>
  <text x="1112" y="47" font-size="12" font-weight="700" fill="#e2e8f0">Daily Updates</text>
  <text x="1112" y="62" font-size="9.5" fill="#9f1239">Holidays API · CDC Upsert</text>
  <!-- Refresh icon -->
  <rect x="1068" y="26" width="32" height="28" rx="3" fill="#f43f5e" opacity="0.2"/>
  <text x="1084" y="45" text-anchor="middle" font-size="14" fill="#fda4af">⟳</text>


  <!-- ═══════════════════════════════════════════════════════════ -->
  <!--  RELATIONSHIP LINES                                         -->
  <!-- ═══════════════════════════════════════════════════════════ -->

  <!-- dim_Customers (right x=370) → fact_AR_Invoices (left x=500) via CustomerID -->
  <path d="M 370,313 H 435 V 285 H 500" fill="none" stroke="#4b5563" stroke-width="1.8" marker-end="url(#arrN)"/>
  <!-- 1 mark -->
  <line x1="375" y1="308" x2="375" y2="318" stroke="#6b7280" stroke-width="1.5"/>
  <!-- N crow foot -->
  <line x1="498" y1="280" x2="492" y2="285" stroke="#6b7280" stroke-width="1.5"/>
  <line x1="498" y1="290" x2="492" y2="285" stroke="#6b7280" stroke-width="1.5"/>
  <line x1="500" y1="285" x2="492" y2="285" stroke="#6b7280" stroke-width="1.5"/>
  <text x="400" y="300" font-size="9" fill="#6b7280" font-weight="600">1</text>
  <text x="470" y="275" font-size="9" fill="#6b7280" font-weight="600">N</text>

  <!-- fact_AR_Invoices (bottom y=398) → fact_Bank_Documents (top y=460) -->
  <path d="M 650,398 V 429 H 700 V 460" fill="none" stroke="#4b5563" stroke-width="1.8" marker-end="url(#arrN)"/>
  <!-- 1 mark -->
  <line x1="645" y1="403" x2="655" y2="403" stroke="#6b7280" stroke-width="1.5"/>
  <!-- N crow foot -->
  <line x1="695" y1="458" x2="700" y2="452" stroke="#6b7280" stroke-width="1.5"/>
  <line x1="705" y1="458" x2="700" y2="452" stroke="#6b7280" stroke-width="1.5"/>
  <line x1="700" y1="458" x2="700" y2="452" stroke="#6b7280" stroke-width="1.5"/>
  <text x="660" y="420" font-size="9" fill="#6b7280" font-weight="600">1</text>
  <text x="706" y="450" font-size="9" fill="#6b7280" font-weight="600">N</text>

  <!-- fact_AR_Invoices (right x=820, y=322) → User_Comments (left x=960) — dashed sampled -->
  <path d="M 820,272 H 890 V 295 H 960" fill="none" stroke="#374151" stroke-width="1.5" stroke-dasharray="6 4" marker-end="url(#arrDash)"/>
  <text x="845" y="264" font-size="9" fill="#4b5563">5K sampled</text>

  <!-- dim_Date (left x=1060) → fact_AR_Invoices (right x=820) via PostingDate — amber -->
  <!-- Route: dim_Date left edge → elbow up → fact right side at PostingDate row (y≈322) -->
  <path d="M 1060,310 H 990 V 322 H 820" fill="none" stroke="#d97706" stroke-width="1.8" marker-end="url(#arrDate)"/>
  <!-- 1 mark on dim_Date side -->
  <line x1="1063" y1="305" x2="1063" y2="315" stroke="#d97706" stroke-width="1.5"/>
  <!-- N crow foot on fact side -->
  <line x1="822" y1="317" x2="828" y2="322" stroke="#d97706" stroke-width="1.5"/>
  <line x1="822" y1="327" x2="828" y2="322" stroke="#d97706" stroke-width="1.5"/>
  <line x1="822" y1="322" x2="828" y2="322" stroke="#d97706" stroke-width="1.5"/>
  <text x="1078" y="302" font-size="9" fill="#d97706" font-weight="600">1</text>
  <text x="826" y="312" font-size="9" fill="#d97706" font-weight="600">N</text>

  <!-- Dynamic_Holidays (bottom of hol table) → dim_Date (top) via Date — teal dashed -->
  <!-- Dynamic_Holidays at x=1060, y=580; bottom ≈ 580+148=728; dim_Date top ≈ 255 -->
  <!-- Route: from bottom of hol table up to dim_Date bottom edge -->
  <path d="M 1175,580 V 540 H 1220 V 440" fill="none" stroke="#0d9488" stroke-width="1.5" stroke-dasharray="6 4" marker-end="url(#arrApi)"/>
  <text x="1228" y="510" font-size="8.5" fill="#0d9488" font-weight="600">LEFT JOIN</text>
  <text x="1228" y="522" font-size="8.5" fill="#0d9488">on Date</text>


  <!-- ═══════════════════════════════════════════════════════════ -->
  <!--  TABLE: fact_AR_Invoices  (CENTER — MAIN FACT)             -->
  <!--  x=500, y=210, w=320, h=188                                -->
  <!-- ═══════════════════════════════════════════════════════════ -->
  <g filter="url(#shadow)">
    <rect x="500" y="210" width="320" height="188" rx="7" fill="#141c2b" stroke="#1e3a6b" stroke-width="1.5"/>
    <!-- Header -->
    <rect x="500" y="210" width="320" height="38" rx="7" fill="url(#hdrFact)"/>
    <rect x="500" y="234" width="320" height="14" fill="url(#hdrFact)"/>
    <!-- Table icon -->
    <rect x="510" y="219" width="18" height="14" rx="2" fill="#ffffff" opacity="0.12"/>
    <line x1="510" y1="224" x2="528" y2="224" stroke="#ffffff" stroke-width="1" opacity="0.3"/>
    <line x1="510" y1="228" x2="528" y2="228" stroke="#ffffff" stroke-width="1" opacity="0.3"/>
    <text x="534" y="231" font-size="12.5" font-weight="700" fill="#ffffff">fact_AR_Invoices</text>
    <!-- Badge -->
    <rect x="770" y="218" width="42" height="16" rx="8" fill="#ffffff" opacity="0.12"/>
    <text x="791" y="229" text-anchor="middle" font-size="8.5" fill="#93c5fd" font-weight="600">950K</text>
    <!-- Separator -->
    <line x1="500" y1="248" x2="820" y2="248" stroke="#1e3a6b" stroke-width="1"/>

    <!-- Row 1: InvoiceID PK -->
    <rect x="500" y="248" width="320" height="28" fill="#0d1520"/>
    <rect x="508" y="255" width="24" height="14" rx="3" fill="#d97706"/>
    <text x="520" y="265" text-anchor="middle" font-size="8" font-weight="700" fill="#1a0a00">PK</text>
    <text x="540" y="266" font-size="11" font-weight="600" fill="#e2e8f0">InvoiceID</text>
    <text x="814" y="266" text-anchor="end" font-size="9.5" fill="#374151">VARCHAR(15)</text>
    <line x1="500" y1="276" x2="820" y2="276" stroke="#1a2540" stroke-width="1"/>

    <!-- Row 2: CustomerID FK -->
    <rect x="500" y="276" width="320" height="28" fill="#111a2c"/>
    <rect x="508" y="283" width="24" height="14" rx="3" fill="#6d28d9"/>
    <text x="520" y="293" text-anchor="middle" font-size="8" font-weight="700" fill="#ffffff">FK</text>
    <text x="540" y="294" font-size="11" fill="#c4b5fd">CustomerID</text>
    <text x="814" y="294" text-anchor="end" font-size="9.5" fill="#374151">VARCHAR(10)</text>
    <line x1="500" y1="304" x2="820" y2="304" stroke="#1a2540" stroke-width="1"/>

    <!-- Row 3: PostingDate FK→dim_Date (highlighted amber) -->
    <rect x="500" y="304" width="320" height="28" fill="#0d1520"/>
    <rect x="508" y="311" width="24" height="14" rx="3" fill="#d97706" opacity="0.6"/>
    <text x="520" y="321" text-anchor="middle" font-size="8" font-weight="700" fill="#fde68a">FK</text>
    <text x="540" y="322" font-size="11" fill="#fde68a">PostingDate</text>
    <text x="814" y="322" text-anchor="end" font-size="9.5" fill="#374151">DATETIME</text>
    <line x1="500" y1="332" x2="820" y2="332" stroke="#1a2540" stroke-width="1"/>

    <!-- Row 4: Amount -->
    <rect x="500" y="332" width="320" height="28" fill="#111a2c"/>
    <text x="540" y="350" font-size="11" fill="#94a3b8">Amount</text>
    <text x="814" y="350" text-anchor="end" font-size="9.5" fill="#374151">FLOAT</text>
    <line x1="500" y1="360" x2="820" y2="360" stroke="#1a2540" stroke-width="1"/>

    <!-- Row 5: Status -->
    <rect x="500" y="360" width="320" height="28" rx="7" fill="#0d1520"/>
    <rect x="500" y="360" width="320" height="21" fill="#0d1520"/>
    <text x="540" y="378" font-size="11" fill="#94a3b8">Status</text>
    <!-- Status pills -->
    <rect x="666" y="363" width="36" height="14" rx="6" fill="#164e63"/>
    <text x="684" y="373" text-anchor="middle" font-size="7.5" fill="#67e8f9">Open</text>
    <rect x="706" y="363" width="40" height="14" rx="6" fill="#1e3a5f"/>
    <text x="726" y="373" text-anchor="middle" font-size="7.5" fill="#93c5fd">Partial</text>
    <rect x="750" y="363" width="46" height="14" rx="6" fill="#14532d"/>
    <text x="773" y="373" text-anchor="middle" font-size="7.5" fill="#86efac">Cleared</text>
    <text x="814" y="378" text-anchor="end" font-size="9.5" fill="#374151">VARCHAR</text>
    <line x1="500" y1="388" x2="820" y2="388" stroke="#1a2540" stroke-width="1"/>
    <!-- Footer probability strip -->
    <rect x="500" y="388" width="320" height="10" rx="7" fill="#0a1018"/>
    <rect x="500" y="388" width="320" height="5" fill="#0a1018"/>
    <rect x="500" y="393" width="128" height="5" rx="2" fill="#164e63" opacity="0.8"/>
    <rect x="628" y="393" width="64" height="5" fill="#1e3a5f" opacity="0.8"/>
    <rect x="692" y="393" width="128" height="5" rx="2" fill="#14532d" opacity="0.8"/>
    <text x="564" y="399" text-anchor="middle" font-size="7" fill="#4b5563">40%</text>
    <text x="660" y="399" text-anchor="middle" font-size="7" fill="#4b5563">20%</text>
    <text x="756" y="399" text-anchor="middle" font-size="7" fill="#4b5563">40%</text>
  </g>


  <!-- ═══════════════════════════════════════════════════════════ -->
  <!--  TABLE: dim_Customers  (LEFT)                              -->
  <!--  x=100, y=255, w=270, h=130                               -->
  <!-- ═══════════════════════════════════════════════════════════ -->
  <g filter="url(#shadow)">
    <rect x="100" y="255" width="270" height="130" rx="7" fill="#160d2b" stroke="#4c1d95" stroke-width="1.5"/>
    <!-- Header -->
    <rect x="100" y="255" width="270" height="38" rx="7" fill="url(#hdrDim)"/>
    <rect x="100" y="279" width="270" height="14" fill="url(#hdrDim)"/>
    <rect x="110" y="264" width="18" height="14" rx="2" fill="#ffffff" opacity="0.12"/>
    <line x1="110" y1="269" x2="128" y2="269" stroke="#ffffff" stroke-width="1" opacity="0.3"/>
    <line x1="110" y1="273" x2="128" y2="273" stroke="#ffffff" stroke-width="1" opacity="0.3"/>
    <text x="134" y="276" font-size="12.5" font-weight="700" fill="#ffffff">dim_Customers</text>
    <!-- Badge -->
    <rect x="321" y="263" width="40" height="16" rx="8" fill="#ffffff" opacity="0.12"/>
    <text x="341" y="274" text-anchor="middle" font-size="8.5" fill="#d8b4fe" font-weight="600">10K</text>
    <line x1="100" y1="293" x2="370" y2="293" stroke="#4c1d95" stroke-width="1"/>

    <!-- Row 1: CustomerID PK -->
    <rect x="100" y="293" width="270" height="28" fill="#0d0820"/>
    <rect x="108" y="300" width="24" height="14" rx="3" fill="#d97706"/>
    <text x="120" y="310" text-anchor="middle" font-size="8" font-weight="700" fill="#1a0a00">PK</text>
    <text x="140" y="311" font-size="11" font-weight="600" fill="#e2e8f0">CustomerID</text>
    <text x="364" y="311" text-anchor="end" font-size="9.5" fill="#374151">VARCHAR(10)</text>
    <line x1="100" y1="321" x2="370" y2="321" stroke="#200f40" stroke-width="1"/>

    <!-- Row 2: CustomerName -->
    <rect x="100" y="321" width="270" height="28" fill="#110a28"/>
    <text x="140" y="339" font-size="11" fill="#94a3b8">CustomerName</text>
    <text x="364" y="339" text-anchor="end" font-size="9.5" fill="#374151">VARCHAR</text>
    <line x1="100" y1="349" x2="370" y2="349" stroke="#200f40" stroke-width="1"/>

    <!-- Row 3: PaymentTerms -->
    <rect x="100" y="349" width="270" height="36" rx="7" fill="#0d0820"/>
    <rect x="100" y="349" width="270" height="28" fill="#0d0820"/>
    <text x="140" y="367" font-size="11" fill="#94a3b8">PaymentTerms</text>
    <!-- Pills -->
    <rect x="232" y="352" width="22" height="13" rx="5" fill="#3b0764"/>
    <text x="243" y="361.5" text-anchor="middle" font-size="7.5" fill="#d8b4fe">30d</text>
    <rect x="258" y="352" width="22" height="13" rx="5" fill="#3b0764"/>
    <text x="269" y="361.5" text-anchor="middle" font-size="7.5" fill="#d8b4fe">60d</text>
    <rect x="284" y="352" width="22" height="13" rx="5" fill="#3b0764"/>
    <text x="295" y="361.5" text-anchor="middle" font-size="7.5" fill="#d8b4fe">90d</text>
    <rect x="310" y="352" width="26" height="13" rx="5" fill="#3b0764"/>
    <text x="323" y="361.5" text-anchor="middle" font-size="7.5" fill="#d8b4fe">120d</text>
    <text x="364" y="367" text-anchor="end" font-size="9.5" fill="#374151">INT</text>
    <rect x="100" y="373" width="270" height="12" rx="7" fill="#0d0820"/>
    <rect x="100" y="373" width="270" height="8" fill="#0d0820"/>
  </g>


  <!-- ═══════════════════════════════════════════════════════════ -->
  <!--  TABLE: fact_Bank_Documents  (BOTTOM CENTER)               -->
  <!--  x=554, y=460, w=292, h=158                               -->
  <!-- ═══════════════════════════════════════════════════════════ -->
  <g filter="url(#shadow)">
    <rect x="554" y="460" width="292" height="158" rx="7" fill="#0a1c2b" stroke="#0369a1" stroke-width="1.5"/>
    <!-- Header -->
    <rect x="554" y="460" width="292" height="38" rx="7" fill="url(#hdrBank)"/>
    <rect x="554" y="484" width="292" height="14" fill="url(#hdrBank)"/>
    <rect x="564" y="469" width="18" height="14" rx="2" fill="#ffffff" opacity="0.12"/>
    <line x1="564" y1="474" x2="582" y2="474" stroke="#ffffff" stroke-width="1" opacity="0.3"/>
    <line x1="564" y1="478" x2="582" y2="478" stroke="#ffffff" stroke-width="1" opacity="0.3"/>
    <text x="588" y="481" font-size="12.5" font-weight="700" fill="#ffffff">fact_Bank_Documents</text>
    <!-- Badge -->
    <rect x="796" y="468" width="42" height="16" rx="8" fill="#ffffff" opacity="0.12"/>
    <text x="817" y="479" text-anchor="middle" font-size="8.5" fill="#7dd3fc" font-weight="600">399K</text>
    <line x1="554" y1="498" x2="846" y2="498" stroke="#0369a1" stroke-width="1"/>

    <!-- Row 1: DocID PK -->
    <rect x="554" y="498" width="292" height="28" fill="#060f18"/>
    <rect x="562" y="505" width="24" height="14" rx="3" fill="#d97706"/>
    <text x="574" y="515" text-anchor="middle" font-size="8" font-weight="700" fill="#1a0a00">PK</text>
    <text x="594" y="516" font-size="11" font-weight="600" fill="#e2e8f0">DocID</text>
    <text x="840" y="516" text-anchor="end" font-size="9.5" fill="#374151">VARCHAR(12)</text>
    <line x1="554" y1="526" x2="846" y2="526" stroke="#0a1c2b" stroke-width="1"/>

    <!-- Row 2: InvoiceID FK -->
    <rect x="554" y="526" width="292" height="28" fill="#081420"/>
    <rect x="562" y="533" width="24" height="14" rx="3" fill="#6d28d9"/>
    <text x="574" y="543" text-anchor="middle" font-size="8" font-weight="700" fill="#ffffff">FK</text>
    <text x="594" y="544" font-size="11" fill="#a5b4fc">InvoiceID</text>
    <text x="840" y="544" text-anchor="end" font-size="9.5" fill="#374151">VARCHAR(15)</text>
    <line x1="554" y1="554" x2="846" y2="554" stroke="#0a1c2b" stroke-width="1"/>

    <!-- Row 3: BankSubmissionDate -->
    <rect x="554" y="554" width="292" height="28" fill="#060f18"/>
    <text x="594" y="572" font-size="11" fill="#94a3b8">BankSubmissionDate</text>
    <text x="840" y="572" text-anchor="end" font-size="9.5" fill="#374151">DATETIME</text>
    <line x1="554" y1="582" x2="846" y2="582" stroke="#0a1c2b" stroke-width="1"/>

    <!-- Row 4: DocStatus -->
    <rect x="554" y="582" width="292" height="36" rx="7" fill="#081420"/>
    <rect x="554" y="582" width="292" height="28" fill="#081420"/>
    <text x="594" y="600" font-size="11" fill="#94a3b8">DocStatus</text>
    <rect x="668" y="585" width="58" height="13" rx="5" fill="#0c4a6e"/>
    <text x="697" y="594.5" text-anchor="middle" font-size="7.5" fill="#7dd3fc">Under Review</text>
    <rect x="730" y="585" width="48" height="13" rx="5" fill="#14532d"/>
    <text x="754" y="594.5" text-anchor="middle" font-size="7.5" fill="#86efac">Accepted</text>
    <rect x="782" y="585" width="44" height="13" rx="5" fill="#450a0a"/>
    <text x="804" y="594.5" text-anchor="middle" font-size="7.5" fill="#fca5a5">Rejected</text>
    <rect x="554" y="606" width="292" height="12" rx="7" fill="#081420"/>
    <rect x="554" y="606" width="292" height="8" fill="#081420"/>
  </g>


  <!-- ═══════════════════════════════════════════════════════════ -->
  <!--  TABLE: dim_Date  (RIGHT — DATE DIMENSION)                 -->
  <!--  x=1060, y=255, w=290, h=240                              -->
  <!-- ═══════════════════════════════════════════════════════════ -->
  <g filter="url(#shadow)">
    <rect x="1060" y="255" width="290" height="240" rx="7" fill="#1a0e04" stroke="#92400e" stroke-width="1.5"/>
    <!-- Header -->
    <rect x="1060" y="255" width="290" height="38" rx="7" fill="url(#hdrDate)"/>
    <rect x="1060" y="279" width="290" height="14" fill="url(#hdrDate)"/>
    <!-- Icon -->
    <rect x="1070" y="264" width="18" height="14" rx="2" fill="#ffffff" opacity="0.12"/>
    <line x1="1070" y1="269" x2="1088" y2="269" stroke="#ffffff" stroke-width="1" opacity="0.3"/>
    <line x1="1070" y1="273" x2="1088" y2="273" stroke="#ffffff" stroke-width="1" opacity="0.3"/>
    <text x="1094" y="276" font-size="12.5" font-weight="700" fill="#ffffff">dim_Date</text>
    <!-- Badge -->
    <rect x="1292" y="263" width="50" height="16" rx="8" fill="#ffffff" opacity="0.12"/>
    <text x="1317" y="274" text-anchor="middle" font-size="8" fill="#fde68a" font-weight="600">Dynamic</text>
    <line x1="1060" y1="293" x2="1350" y2="293" stroke="#92400e" stroke-width="1"/>

    <!-- Row 1: Date PK -->
    <rect x="1060" y="293" width="290" height="28" fill="#110800"/>
    <rect x="1068" y="300" width="24" height="14" rx="3" fill="#d97706"/>
    <text x="1080" y="310" text-anchor="middle" font-size="8" font-weight="700" fill="#1a0a00">PK</text>
    <text x="1100" y="311" font-size="11" font-weight="600" fill="#e2e8f0">Date</text>
    <text x="1344" y="311" text-anchor="end" font-size="9.5" fill="#374151">DATE</text>
    <line x1="1060" y1="321" x2="1350" y2="321" stroke="#1a0e04" stroke-width="1"/>

    <!-- Row 2: Year -->
    <rect x="1060" y="321" width="290" height="28" fill="#160c03"/>
    <text x="1100" y="339" font-size="11" fill="#94a3b8">Year</text>
    <text x="1344" y="339" text-anchor="end" font-size="9.5" fill="#374151">INT64</text>
    <line x1="1060" y1="349" x2="1350" y2="349" stroke="#1a0e04" stroke-width="1"/>

    <!-- Row 3: MonthNum -->
    <rect x="1060" y="349" width="290" height="28" fill="#110800"/>
    <text x="1100" y="367" font-size="11" fill="#94a3b8">MonthNum</text>
    <text x="1344" y="367" text-anchor="end" font-size="9.5" fill="#374151">INT64</text>
    <line x1="1060" y1="377" x2="1350" y2="377" stroke="#1a0e04" stroke-width="1"/>

    <!-- Row 4: DayOfWeekNum -->
    <rect x="1060" y="377" width="290" height="28" fill="#160c03"/>
    <text x="1100" y="395" font-size="11" fill="#94a3b8">DayOfWeekNum</text>
    <text x="1344" y="395" text-anchor="end" font-size="9.5" fill="#374151">INT64</text>
    <line x1="1060" y1="405" x2="1350" y2="405" stroke="#1a0e04" stroke-width="1"/>

    <!-- Row 5: IsWeekend -->
    <rect x="1060" y="405" width="290" height="28" fill="#110800"/>
    <text x="1100" y="423" font-size="11" fill="#94a3b8">IsWeekend</text>
    <!-- Pills Fri/Sat -->
    <rect x="1200" y="408" width="52" height="13" rx="5" fill="#451a20"/>
    <text x="1226" y="417.5" text-anchor="middle" font-size="7.5" fill="#fca5a5">Fri · Sat</text>
    <text x="1344" y="423" text-anchor="end" font-size="9.5" fill="#374151">LOGICAL</text>
    <line x1="1060" y1="433" x2="1350" y2="433" stroke="#1a0e04" stroke-width="1"/>

    <!-- Row 6: HolidayName -->
    <rect x="1060" y="433" width="290" height="28" fill="#160c03"/>
    <text x="1100" y="451" font-size="11" fill="#fde68a">HolidayName</text>
    <!-- small API badge -->
    <rect x="1238" y="436" width="30" height="13" rx="5" fill="#134e4a"/>
    <text x="1253" y="445.5" text-anchor="middle" font-size="7" fill="#99f6e4">API</text>
    <text x="1344" y="451" text-anchor="end" font-size="9.5" fill="#374151">TEXT</text>
    <line x1="1060" y1="461" x2="1350" y2="461" stroke="#1a0e04" stroke-width="1"/>

    <!-- Row 7: IsBankingWorkingDay -->
    <rect x="1060" y="461" width="290" height="34" rx="7" fill="#110800"/>
    <rect x="1060" y="461" width="290" height="26" fill="#110800"/>
    <text x="1100" y="479" font-size="11" fill="#fde68a">IsBankingWorkingDay</text>
    <text x="1344" y="479" text-anchor="end" font-size="9.5" fill="#374151">LOGICAL</text>
    <rect x="1060" y="487" width="290" height="8" rx="7" fill="#110800"/>
  </g>


  <!-- ═══════════════════════════════════════════════════════════ -->
  <!--  TABLE: Dynamic_Holidays  (BOTTOM RIGHT — HELPER/API)      -->
  <!--  x=1060, y=580, w=290, h=148                              -->
  <!-- ═══════════════════════════════════════════════════════════ -->
  <g filter="url(#shadow)">
    <!-- Dashed border = helper / not loaded to model -->
    <rect x="1060" y="580" width="290" height="148" rx="7" fill="#041a18" stroke="#0d9488" stroke-width="1.5" stroke-dasharray="7 3"/>
    <!-- Header -->
    <rect x="1060" y="580" width="290" height="38" rx="7" fill="url(#hdrHol)"/>
    <rect x="1060" y="604" width="290" height="14" fill="url(#hdrHol)"/>
    <!-- API icon — little globe -->
    <circle cx="1080" cy="599" r="10" fill="#0d9488" opacity="0.4"/>
    <ellipse cx="1080" cy="599" rx="5" ry="10" fill="none" stroke="#99f6e4" stroke-width="1"/>
    <line x1="1070" y1="599" x2="1090" y2="599" stroke="#99f6e4" stroke-width="1"/>
    <text x="1096" y="601" font-size="12.5" font-weight="700" fill="#ffffff">Dynamic_Holidays</text>
    <!-- "helper" badge -->
    <rect x="1280" y="583" width="60" height="16" rx="8" fill="#ffffff" opacity="0.1"/>
    <text x="1310" y="594" text-anchor="middle" font-size="7.5" fill="#99f6e4" font-weight="600">API · helper</text>
    <line x1="1060" y1="618" x2="1350" y2="618" stroke="#0d9488" stroke-width="1" opacity="0.5"/>

    <!-- Row 1: Date PK -->
    <rect x="1060" y="618" width="290" height="28" fill="#031210"/>
    <rect x="1068" y="625" width="24" height="14" rx="3" fill="#d97706"/>
    <text x="1080" y="635" text-anchor="middle" font-size="8" font-weight="700" fill="#1a0a00">PK</text>
    <text x="1100" y="636" font-size="11" font-weight="600" fill="#e2e8f0">Date</text>
    <text x="1344" y="636" text-anchor="end" font-size="9.5" fill="#374151">DATE</text>
    <line x1="1060" y1="646" x2="1350" y2="646" stroke="#031a18" stroke-width="1"/>

    <!-- Row 2: HolidayName -->
    <rect x="1060" y="646" width="290" height="28" fill="#041814"/>
    <text x="1100" y="664" font-size="11" fill="#94a3b8">HolidayName</text>
    <text x="1344" y="664" text-anchor="end" font-size="9.5" fill="#374151">TEXT</text>
    <line x1="1060" y1="674" x2="1350" y2="674" stroke="#031a18" stroke-width="1"/>

    <!-- Source note -->
    <rect x="1060" y="674" width="290" height="54" rx="7" fill="#031210"/>
    <rect x="1060" y="674" width="290" height="46" fill="#031210"/>
    <!-- tiny API URL note -->
    <text x="1080" y="692" font-size="8" fill="#0d9488" font-weight="600">Source: Nager Date API</text>
    <text x="1080" y="705" font-size="7.5" fill="#0d9488">/api/v3/PublicHolidays/{year}/EG</text>
    <text x="1080" y="717" font-size="7.5" fill="#374151">Current year + prior year · try/otherwise</text>
    <rect x="1060" y="720" width="290" height="8" rx="7" fill="#031210"/>
  </g>


  <!-- ═══════════════════════════════════════════════════════════ -->
  <!--  TABLE: User_Comments  (RIGHT — OUTPUT)                    -->
  <!--  x=960, y=265, w=80 → shift left slightly to make room    -->
  <!-- ═══════════════════════════════════════════════════════════ -->
  <!-- User_Comments stays at same x=74 y=265 but shifted -->
  <g filter="url(#shadow)">
    <rect x="74" y="460" width="455" height="215" rx="7" fill="#081510" stroke="#059669" stroke-width="1.5" stroke-dasharray="6 3"/>
    <!-- Header -->
    <rect x="74" y="460" width="455" height="38" rx="7" fill="url(#hdrOut)"/>
    <rect x="74" y="484" width="455" height="14" fill="url(#hdrOut)"/>
    <!-- Icon -->
    <rect x="84" y="469" width="18" height="14" rx="2" fill="#ffffff" opacity="0.12"/>
    <line x1="84" y1="474" x2="102" y2="474" stroke="#ffffff" stroke-width="1" opacity="0.3"/>
    <line x1="84" y1="478" x2="102" y2="478" stroke="#ffffff" stroke-width="1" opacity="0.3"/>
    <text x="108" y="481" font-size="12.5" font-weight="700" fill="#ffffff">User_Comments</text>
    <!-- Badge -->
    <rect x="460" y="468" width="60" height="16" rx="8" fill="#ffffff" opacity="0.12"/>
    <text x="490" y="479" text-anchor="middle" font-size="8" fill="#6ee7b7" font-weight="600">5K (output)</text>
    <line x1="74" y1="498" x2="529" y2="498" stroke="#059669" stroke-width="1" opacity="0.5"/>

    <!-- Row 1: InvoiceID (sampled) -->
    <rect x="74" y="498" width="455" height="28" fill="#040d08"/>
    <rect x="82" y="505" width="32" height="14" rx="3" fill="#6d28d9"/>
    <text x="98" y="515" text-anchor="middle" font-size="7.5" font-weight="700" fill="#ffffff">samp</text>
    <text x="122" y="516" font-size="11" fill="#a5b4fc">InvoiceID</text>
    <text x="523" y="516" text-anchor="end" font-size="9.5" fill="#374151">VARCHAR(15)</text>
    <line x1="74" y1="526" x2="529" y2="526" stroke="#0a2010" stroke-width="1"/>

    <!-- Row 2: ContactDate -->
    <rect x="74" y="526" width="455" height="28" fill="#061008"/>
    <text x="122" y="544" font-size="11" fill="#94a3b8">ContactDate</text>
    <text x="523" y="544" text-anchor="end" font-size="9.5" fill="#374151">DATE</text>
    <line x1="74" y1="554" x2="529" y2="554" stroke="#0a2010" stroke-width="1"/>

    <!-- Row 3: FollowUpNote -->
    <rect x="74" y="554" width="455" height="28" fill="#040d08"/>
    <text x="122" y="572" font-size="11" fill="#94a3b8">FollowUpNote</text>
    <text x="523" y="572" text-anchor="end" font-size="9.5" fill="#374151">VARCHAR</text>
    <line x1="74" y1="582" x2="529" y2="582" stroke="#0a2010" stroke-width="1"/>

    <!-- Row 4: PromisedDate -->
    <rect x="74" y="582" width="455" height="28" fill="#061008"/>
    <text x="122" y="600" font-size="11" fill="#94a3b8">PromisedDate</text>
    <text x="523" y="600" text-anchor="end" font-size="9.5" fill="#374151">DATE</text>
    <line x1="74" y1="610" x2="529" y2="610" stroke="#0a2010" stroke-width="1"/>

    <!-- Row 5: CollectorName + pills -->
    <rect x="74" y="610" width="455" height="36" rx="7" fill="#040d08"/>
    <rect x="74" y="610" width="455" height="28" fill="#040d08"/>
    <text x="122" y="628" font-size="11" fill="#94a3b8">CollectorName</text>
    <text x="523" y="628" text-anchor="end" font-size="9.5" fill="#374151">VARCHAR</text>
    <!-- Name pills -->
    <rect x="122" y="642" width="38" height="13" rx="5" fill="#064e3b"/>
    <text x="141" y="651.5" text-anchor="middle" font-size="7.5" fill="#34d399">Ahmed</text>
    <rect x="164" y="642" width="30" height="13" rx="5" fill="#064e3b"/>
    <text x="179" y="651.5" text-anchor="middle" font-size="7.5" fill="#34d399">Sara</text>
    <rect x="198" y="642" width="32" height="13" rx="5" fill="#064e3b"/>
    <text x="214" y="651.5" text-anchor="middle" font-size="7.5" fill="#34d399">Omar</text>
    <rect x="234" y="642" width="30" height="13" rx="5" fill="#064e3b"/>
    <text x="249" y="651.5" text-anchor="middle" font-size="7.5" fill="#34d399">Nour</text>
    <rect x="268" y="642" width="42" height="13" rx="5" fill="#064e3b"/>
    <text x="289" y="651.5" text-anchor="middle" font-size="7.5" fill="#34d399">Yasmin</text>
    <rect x="74" y="666" width="455" height="9" rx="7" fill="#040d08"/>
  </g>

  <!-- Dashed arrow: fact_AR_Invoices → User_Comments (sampled) -->
  <path d="M 660,398 V 440 H 300 V 460" fill="none" stroke="#374151" stroke-width="1.5" stroke-dasharray="6 4" marker-end="url(#arrDash)"/>
  <text x="315" y="432" font-size="9" fill="#4b5563">5K sampled</text>


  <!-- ═══════════════════════════════════════════════════════════ -->
  <!--  LEGEND                                                     -->
  <!-- ═══════════════════════════════════════════════════════════ -->
  <rect x="20" y="808" width="900" height="38" rx="6" fill="#0d0f14" stroke="#1f2937" stroke-width="1"/>

  <!-- PK -->
  <rect x="34" y="819" width="24" height="14" rx="3" fill="#d97706"/>
  <text x="46" y="829" text-anchor="middle" font-size="8" font-weight="700" fill="#1a0a00">PK</text>
  <text x="64" y="830.5" font-size="9.5" fill="#6b7280">Primary Key</text>

  <!-- FK -->
  <rect x="148" y="819" width="24" height="14" rx="3" fill="#6d28d9"/>
  <text x="160" y="829" text-anchor="middle" font-size="8" font-weight="700" fill="#fff">FK</text>
  <text x="178" y="830.5" font-size="9.5" fill="#6b7280">Foreign Key</text>

  <!-- 1:N -->
  <line x1="262" y1="826" x2="279" y2="826" stroke="#4b5563" stroke-width="1.8" marker-end="url(#arrN)"/>
  <line x1="264" y1="821" x2="264" y2="831" stroke="#6b7280" stroke-width="1.5"/>
  <text x="284" y="830.5" font-size="9.5" fill="#6b7280">1 : N Relationship</text>

  <!-- Dashed — Derived/Sampled -->
  <line x1="390" y1="826" x2="407" y2="826" stroke="#374151" stroke-width="1.5" stroke-dasharray="5 3" marker-end="url(#arrDash)"/>
  <text x="412" y="830.5" font-size="9.5" fill="#6b7280">Derived / Sampled</text>

  <!-- Amber — dim_Date FK -->
  <line x1="530" y1="826" x2="547" y2="826" stroke="#d97706" stroke-width="1.8" marker-end="url(#arrDate)"/>
  <text x="552" y="830.5" font-size="9.5" fill="#6b7280">Date Dimension FK</text>

  <!-- Teal dashed — API feed -->
  <line x1="668" y1="826" x2="685" y2="826" stroke="#0d9488" stroke-width="1.5" stroke-dasharray="6 3" marker-end="url(#arrApi)"/>
  <text x="690" y="830.5" font-size="9.5" fill="#6b7280">API / Helper Query</text>

  <!-- Crow foot -->
  <line x1="806" y1="820" x2="812" y2="826" stroke="#6b7280" stroke-width="1.5"/>
  <line x1="818" y1="820" x2="812" y2="826" stroke="#6b7280" stroke-width="1.5"/>
  <line x1="812" y1="820" x2="812" y2="826" stroke="#6b7280" stroke-width="1.5"/>
  <text x="824" y="830.5" font-size="9.5" fill="#6b7280">Many (crow's foot)</text>

  <!-- Source label -->
  <text x="1360" y="848" text-anchor="end" font-size="8.5" fill="#374151">github.com/Sohila-Khaled-Abbas/AR_Financial_Tracking_System</text>
</svg>
